<svg width="1387" height="1316" viewBox="0 0 1387 1316" fill="none" xmlns="http://www.w3.org/2000/svg">
<g clip-path="url(#clip0_8_44)">
<rect width="191.191" height="461.041" rx="20" transform="matrix(0.589589 0.807704 -0.642884 0.765964 181.396 150)" fill="#444444" fill-opacity="0.13"/>
<rect width="191.191" height="461.041" rx="20" transform="matrix(0.589589 0.807704 -0.642884 0.765964 510.386 -228)" fill="#444444" fill-opacity="0.13"/>
<rect width="191.191" height="461.041" rx="20" transform="matrix(0.589589 0.807704 -0.642884 0.765964 590.396 85)" fill="#444444" fill-opacity="0.13"/>
<rect width="191.191" height="461.041" rx="20" transform="matrix(0.589589 0.807704 -0.642884 0.765964 919.394 -293)" fill="#444444" fill-opacity="0.13"/>
<rect width="191.191" height="461.041" rx="20" transform="matrix(0.589589 0.807704 -0.642884 0.765964 -72.6038 857)" fill="#444444" fill-opacity="0.13"/>
<rect width="191.191" height="461.041" rx="20" transform="matrix(0.589589 0.807704 -0.642884 0.765964 256.394 479)" fill="#444444" fill-opacity="0.13"/>
<rect width="191.191" height="461.041" rx="20" transform="matrix(0.589589 0.807704 -0.642884 0.765964 945.396 85)" fill="#444444" fill-opacity="0.13"/>
<rect width="191.191" height="461.041" rx="20" transform="matrix(0.589589 0.807704 -0.642884 0.765964 1274.39 -293)" fill="#444444" fill-opacity="0.13"/>
<rect width="191.191" height="461.041" rx="20" transform="matrix(0.589589 0.807704 -0.642884 0.765964 296.396 841)" fill="#444444" fill-opacity="0.13"/>
<rect width="191.191" height="461.041" rx="20" transform="matrix(0.589589 0.807704 -0.642884 0.765964 625.394 463)" fill="#444444" fill-opacity="0.13"/>
<rect width="191.191" height="461.041" rx="20" transform="matrix(0.589589 0.807704 -0.642884 0.765964 954.396 490)" fill="#444444" fill-opacity="0.13"/>
<rect width="191.191" height="461.041" rx="20" transform="matrix(0.589589 0.807704 -0.642884 0.765964 1283.39 112)" fill="#444444" fill-opacity="0.13"/>
<rect width="191.191" height="461.041" rx="20" transform="matrix(0.589589 0.807704 -0.642884 0.765964 287.396 1264)" fill="#444444" fill-opacity="0.13"/>
<rect width="191.191" height="461.041" rx="20" transform="matrix(0.589589 0.807704 -0.642884 0.765964 616.394 886)" fill="#444444" fill-opacity="0.13"/>
<rect width="191.191" height="461.041" rx="20" transform="matrix(0.589589 0.807704 -0.642884 0.765964 1443.4 800)" fill="#444444" fill-opacity="0.13"/>
<rect width="191.191" height="461.041" rx="20" transform="matrix(0.589589 0.807704 -0.642884 0.765964 1105.39 1196)" fill="#444444" fill-opacity="0.13"/>
<rect width="191.191" height="461.041" rx="20" transform="matrix(0.589589 0.807704 -0.642884 0.765964 1318.4 490)" fill="#444444" fill-opacity="0.13"/>
<rect width="191.191" height="461.041" rx="20" transform="matrix(0.589589 0.807704 -0.642884 0.765964 1647.39 112)" fill="#444444" fill-opacity="0.13"/>
<rect width="191.191" height="461.041" rx="20" transform="matrix(0.589589 0.807704 -0.642884 0.765964 651.396 1264)" fill="#444444" fill-opacity="0.13"/>
<rect width="191.191" height="461.041" rx="20" transform="matrix(0.589589 0.807704 -0.642884 0.765964 980.394 886)" fill="#444444" fill-opacity="0.13"/>
</g>
<defs>
<clipPath id="clip0_8_44">
<rect width="1387" height="1316" fill="white"/>
</clipPath>
</defs>
</svg>
